<svg width="585" height="257" viewBox="0 0 585 257" fill="none" xmlns="http://www.w3.org/2000/svg">
<path d="M182.406 160.031H183.406V159.031H182.406V160.031ZM182.406 198.654V199.654H183.406V198.654H182.406ZM3.13379 198.654L2.13697 198.734L2.21059 199.654H3.13379V198.654ZM0.741211 168.747L-0.104757 168.214L-0.28213 168.495L-0.255605 168.827L0.741211 168.747ZM104.477 4.17188V3.17188H103.925L103.631 3.63864L104.477 4.17188ZM143.612 4.17188L144.471 4.68485L145.375 3.17188H143.612V4.17188ZM101.229 75.0947L102.084 75.614L102.088 75.6077L101.229 75.0947ZM49.6182 160.031L48.7636 159.512L47.8404 161.031H49.6182V160.031ZM154.208 4.17188H155.208V3.17188H154.208V4.17188ZM154.208 253V254H155.208V253H154.208ZM104.989 253H103.989V254H104.989V253ZM104.989 4.17188V3.17188H103.989V4.17188H104.989ZM181.406 160.031V198.654H183.406V160.031H181.406ZM182.406 197.654H3.13379V199.654H182.406V197.654ZM4.1306 198.575L1.73803 168.667L-0.255605 168.827L2.13697 198.734L4.1306 198.575ZM1.58718 169.28L105.323 4.70511L103.631 3.63864L-0.104757 168.214L1.58718 169.28ZM104.477 5.17188H143.612V3.17188H104.477V5.17188ZM142.754 3.6589L100.371 74.5818L102.088 75.6077L144.471 4.68485L142.754 3.6589ZM100.375 74.5754L48.7636 159.512L50.4728 160.551L102.084 75.614L100.375 74.5754ZM49.6182 161.031H182.406V159.031H49.6182V161.031ZM153.208 4.17188V253H155.208V4.17188H153.208ZM154.208 252H104.989V254H154.208V252ZM105.989 253V4.17188H103.989V253H105.989ZM104.989 5.17188H154.208V3.17188H104.989V5.17188ZM370.565 198.142L371.524 198.426L371.525 198.424L370.565 198.142ZM353.305 231.296L352.55 230.64L352.549 230.641L353.305 231.296ZM264.608 252.658L264.319 253.615L264.33 253.619L264.608 252.658ZM241.195 240.524L240.571 241.305L240.577 241.31L241.195 240.524ZM223.422 219.846L222.557 220.348L222.561 220.355L222.565 220.362L223.422 219.846ZM212.143 189.768L211.167 189.988L212.143 189.768ZM214.193 58.6885L213.237 58.3967L213.235 58.4019L214.193 58.6885ZM231.454 25.7051L230.703 25.0444L230.698 25.0501L231.454 25.7051ZM258.114 6.90625L258.477 7.83829L258.486 7.83472L258.114 6.90625ZM320.15 4.68457L319.857 5.64062L319.865 5.64294L319.872 5.64513L320.15 4.68457ZM361.337 37.1553L360.472 37.6577L360.475 37.6628L361.337 37.1553ZM372.616 67.0625L371.641 67.2825L371.641 67.2845L372.616 67.0625ZM325.619 76.4619L324.628 76.5963L324.629 76.6045L324.631 76.6127L325.619 76.4619ZM321.347 59.3721L320.42 59.7473L320.423 59.7551L321.347 59.3721ZM277.426 42.4531L276.979 41.5586L276.969 41.5636L277.426 42.4531ZM266.659 52.8779L267.504 53.4135L267.509 53.4043L266.659 52.8779ZM259.823 71.6768L258.843 71.4779L258.841 71.489L259.823 71.6768ZM258.969 180.026L257.978 180.159L257.979 180.167L257.98 180.175L258.969 180.026ZM263.412 197.629L262.482 197.997L262.487 198.01L262.493 198.023L263.412 197.629ZM270.59 209.421L269.842 210.085L269.855 210.1L269.869 210.114L270.59 209.421ZM280.331 215.915L279.98 216.851L279.989 216.855L280.331 215.915ZM307.162 214.719L307.619 215.608L307.628 215.604L307.162 214.719ZM318.1 204.123L317.253 203.591L317.249 203.597L318.1 204.123ZM375.547 106.711V149.777H377.547V106.711H375.547ZM375.547 149.777C375.547 168.395 373.56 184.417 369.606 197.859L371.525 198.424C375.546 184.75 377.547 168.529 377.547 149.777H375.547ZM369.607 197.857C365.651 211.194 359.957 222.11 352.55 230.64L354.06 231.952C361.691 223.164 367.505 211.977 371.524 198.426L369.607 197.857ZM352.549 230.641C345.245 239.068 336.546 245.296 326.444 249.337L327.187 251.194C337.592 247.032 346.553 240.613 354.06 231.951L352.549 230.641ZM326.444 249.337C316.323 253.386 305.058 255.418 292.636 255.418V257.418C305.278 257.418 316.8 255.349 327.187 251.194L326.444 249.337ZM292.636 255.418C282.693 255.418 273.445 254.175 264.886 251.698L264.33 253.619C273.089 256.154 282.526 257.418 292.636 257.418V255.418ZM264.898 251.701C256.356 249.116 248.663 245.128 241.814 239.739L240.577 241.31C247.627 246.858 255.543 250.96 264.319 253.615L264.898 251.701ZM241.82 239.744C235.086 234.356 229.237 227.556 224.278 219.329L222.565 220.362C227.633 228.769 233.633 235.755 240.571 241.305L241.82 239.744ZM224.286 219.343C219.448 211.017 215.721 201.091 213.118 189.548L211.167 189.988C213.805 201.687 217.597 211.812 222.557 220.348L224.286 219.343ZM213.118 189.548C210.518 178.015 209.212 164.761 209.212 149.777H207.212C207.212 164.872 208.527 178.278 211.167 189.988L213.118 189.548ZM209.212 149.777V106.711H207.212V149.777H209.212ZM209.212 106.711C209.212 88.0921 211.199 72.1865 215.151 58.9751L213.235 58.4019C209.212 71.8506 207.212 87.9599 207.212 106.711H209.212ZM215.15 58.9803C219.22 45.6385 224.915 34.7769 232.21 26.36L230.698 25.0501C223.182 33.7231 217.37 44.8505 213.237 58.3967L215.15 58.9803ZM232.205 26.3657C239.622 17.9367 248.377 11.7658 258.477 7.83826L257.752 5.97424C247.343 10.022 238.325 16.3836 230.703 25.0444L232.205 26.3657ZM258.486 7.83472C268.607 3.78635 279.872 1.75391 292.294 1.75391V-0.246094C279.651 -0.246094 268.13 1.82302 257.743 5.97778L258.486 7.83472ZM292.294 1.75391C302.233 1.75391 311.418 3.05262 319.857 5.64062L320.444 3.72852C311.793 1.07564 302.407 -0.246094 292.294 -0.246094V1.75391ZM319.872 5.64513C328.414 8.11779 336.105 11.9925 342.953 17.2687L344.174 15.6844C337.122 10.251 329.204 6.26437 320.428 3.72401L319.872 5.64513ZM342.953 17.2687C349.789 22.536 355.631 29.3264 360.472 37.6577L362.202 36.6529C357.245 28.1222 351.237 21.1268 344.174 15.6844L342.953 17.2687ZM360.475 37.6628C365.311 45.8724 369.038 55.7398 371.641 67.2825L373.592 66.8425C370.954 55.143 367.161 45.0722 362.199 36.6477L360.475 37.6628ZM371.641 67.2845C374.241 78.7027 375.547 91.8419 375.547 106.711H377.547C377.547 91.7298 376.232 78.4366 373.591 66.8405L371.641 67.2845ZM328.157 156.271V100.046H326.157V156.271H328.157ZM328.157 100.046C328.157 91.0099 327.643 83.096 326.608 76.3111L324.631 76.6127C325.646 83.2718 326.157 91.0806 326.157 100.046H328.157ZM326.61 76.3275C325.691 69.5472 324.249 63.7617 322.27 58.9891L320.423 59.7551C322.318 64.3249 323.725 69.9326 324.628 76.5963L326.61 76.3275ZM322.274 58.9969C320.301 54.1227 317.846 50.1322 314.89 47.0579L313.448 48.4441C316.189 51.2942 318.519 55.0511 320.42 59.7473L322.274 58.9969ZM314.89 47.0579C311.944 43.9941 308.572 41.743 304.779 40.3205L304.077 42.1932C307.575 43.505 310.697 45.5834 313.448 48.4441L314.89 47.0579ZM304.779 40.3205C301.006 38.9057 296.84 38.2061 292.294 38.2061V40.2061C296.634 40.2061 300.558 40.8736 304.077 42.1932L304.779 40.3205ZM292.294 38.2061C286.58 38.2061 281.467 39.3146 276.979 41.5587L277.873 43.3475C282.044 41.2622 286.843 40.2061 292.294 40.2061V38.2061ZM276.969 41.5636C272.564 43.8257 268.849 47.4411 265.809 52.3516L267.509 53.4043C270.394 48.7445 273.857 45.4099 277.883 43.3427L276.969 41.5636ZM265.815 52.3424C262.765 57.1519 260.453 63.5462 258.843 71.4779L260.803 71.8756C262.384 64.0847 264.629 57.9464 267.504 53.4135L265.815 52.3424ZM258.841 71.489C257.344 79.3179 256.602 88.8412 256.602 100.046H258.602C258.602 88.9198 259.34 79.5304 260.805 71.8645L258.841 71.489ZM256.602 100.046V156.271H258.602V100.046H256.602ZM256.602 156.271C256.602 165.304 257.059 173.268 257.978 180.159L259.96 179.894C259.056 173.113 258.602 165.24 258.602 156.271H256.602ZM257.98 180.175C259.013 187.064 260.51 193.009 262.482 197.997L264.342 197.261C262.44 192.451 260.975 186.661 259.958 179.878L257.98 180.175ZM262.493 198.023C264.575 202.882 267.021 206.911 269.842 210.085L271.337 208.757C268.69 205.779 266.35 201.946 264.331 197.235L262.493 198.023ZM269.869 210.114C272.815 213.178 276.187 215.429 279.98 216.851L280.682 214.979C277.184 213.667 274.061 211.588 271.311 208.728L269.869 210.114ZM279.989 216.855C283.87 218.266 288.089 218.966 292.636 218.966V216.966C288.296 216.966 284.312 216.298 280.673 214.975L279.989 216.855ZM292.636 218.966C298.239 218.966 303.242 217.856 307.619 215.608L306.705 213.829C302.651 215.911 297.97 216.966 292.636 216.966V218.966ZM307.628 215.604C312.138 213.23 315.908 209.563 318.95 204.649L317.249 203.597C314.367 208.253 310.845 211.65 306.696 213.834L307.628 215.604ZM318.947 204.655C322.109 199.618 324.422 193.108 325.918 185.168L323.953 184.797C322.487 192.579 320.242 198.83 317.253 203.591L318.947 204.655ZM325.918 185.168C327.414 177.226 328.157 167.59 328.157 156.271H326.157C326.157 167.512 325.419 177.016 323.953 184.797L325.918 185.168ZM584.359 160.031H585.359V159.031H584.359V160.031ZM584.359 198.654V199.654H585.359V198.654H584.359ZM405.087 198.654L404.09 198.734L404.164 199.654H405.087V198.654ZM402.694 168.747L401.848 168.214L401.671 168.495L401.698 168.827L402.694 168.747ZM506.43 4.17188V3.17188H505.878L505.584 3.63864L506.43 4.17188ZM545.565 4.17188L546.424 4.68485L547.328 3.17188H545.565V4.17188ZM503.183 75.0947L504.037 75.614L504.041 75.6077L503.183 75.0947ZM451.571 160.031L450.717 159.512L449.793 161.031H451.571V160.031ZM556.161 4.17188H557.161V3.17188H556.161V4.17188ZM556.161 253V254H557.161V253H556.161ZM506.942 253H505.942V254H506.942V253ZM506.942 4.17188V3.17188H505.942V4.17188H506.942ZM583.359 160.031V198.654H585.359V160.031H583.359ZM584.359 197.654H405.087V199.654H584.359V197.654ZM406.084 198.575L403.691 168.667L401.698 168.827L404.09 198.734L406.084 198.575ZM403.54 169.28L507.276 4.70511L505.584 3.63864L401.848 168.214L403.54 169.28ZM506.43 5.17188H545.565V3.17188H506.43V5.17188ZM544.707 3.6589L502.324 74.5818L504.041 75.6077L546.424 4.68485L544.707 3.6589ZM502.328 74.5754L450.717 159.512L452.426 160.551L504.037 75.614L502.328 74.5754ZM451.571 161.031H584.359V159.031H451.571V161.031ZM555.161 4.17188V253H557.161V4.17188H555.161ZM556.161 252H506.942V254H556.161V252ZM507.942 253V4.17188H505.942V253H507.942ZM506.942 5.17188H556.161V3.17188H506.942V5.17188Z" fill="#16295B"/>
</svg>
